<svg width="73" height="79" viewBox="0 0 73 79" fill="none" xmlns="http://www.w3.org/2000/svg">
<path d="M4.48002 52.256C3.80802 52.256 3.13602 52.144 2.46402 51.92C1.75469 51.7333 1.17602 51.36 0.728021 50.8C0.242688 50.2773 2.14577e-05 49.5493 2.14577e-05 48.616C2.14577e-05 48.0933 0.205355 47.5147 0.616021 46.88C0.989355 46.208 1.45602 45.872 2.01602 45.872C1.71735 46.32 1.56802 46.8613 1.56802 47.496C1.56802 48.168 1.84802 48.728 2.40802 49.176C2.96802 49.6613 3.86402 49.904 5.09602 49.904C6.51469 49.904 8.00802 49.4933 9.57602 48.672C11.144 47.888 12.7307 46.8427 14.336 45.536C15.9414 44.192 17.5094 42.7173 19.04 41.112C20.5707 39.5067 21.9894 37.8827 23.296 36.24C24.7894 34.3733 26.3014 32.544 27.832 30.752C29.3627 28.96 30.8374 27.3547 32.256 25.936C33.712 24.48 35 23.36 36.12 22.576C36.4934 22.3147 37.1094 21.8853 37.968 21.288C38.864 20.6907 40.0027 20.1493 41.384 19.664C40.0027 19.7013 38.5467 19.6827 37.016 19.608C35.5227 19.496 34.0667 19.3467 32.648 19.16C31.864 19.048 31.0614 18.9547 30.24 18.88C29.4187 18.8053 28.5787 18.768 27.72 18.768C25.4427 18.768 23.296 19.0667 21.28 19.664C19.264 20.2613 17.7147 21.3067 16.632 22.8C15.9974 23.696 15.68 24.5733 15.68 25.432C15.68 26.0293 15.8107 26.5147 16.072 26.888C16.2214 27.0373 16.3894 27.2053 16.576 27.392C16.7627 27.5413 16.912 27.616 17.024 27.616C16.8747 27.7653 16.688 27.84 16.464 27.84C16.2027 27.84 15.9414 27.784 15.68 27.672C15.456 27.5227 15.2694 27.3733 15.12 27.224C14.7467 26.8133 14.4667 26.3467 14.28 25.824C14.0934 25.264 14 24.7227 14 24.2C14 23.1547 14.2614 22.2773 14.784 21.568C15.8294 20.1493 17.1734 19.104 18.816 18.432C20.4587 17.76 22.5307 17.424 25.032 17.424C26.1147 17.424 27.2907 17.4987 28.56 17.648C29.8294 17.76 31.2107 17.928 32.704 18.152C35.84 18.6747 38.8267 18.936 41.664 18.936C43.0827 18.936 44.296 18.8613 45.304 18.712C46.312 18.5253 46.9467 18.2453 47.208 17.872C47.6187 17.872 47.7494 18.04 47.6 18.376C47.488 18.8613 47.2454 19.16 46.872 19.272C46.4987 19.384 46.088 19.5333 45.64 19.72C44.7814 20.0187 43.8107 20.728 42.728 21.848C41.6454 22.968 40.5254 24.3493 39.368 25.992C38.248 27.6347 37.128 29.3893 36.008 31.256C34.888 33.0853 33.8427 34.896 32.872 36.688C31.9014 38.4427 31.0614 40.0107 30.352 41.392C29.9787 42.1013 29.512 42.9227 28.952 43.856C28.392 44.7893 27.776 45.648 27.104 46.432C28.1494 45.648 29.3814 44.5467 30.8 43.128C32.2187 41.7093 33.6934 40.104 35.224 38.312C36.792 36.52 38.304 34.7093 39.76 32.88C41.1414 31.088 42.6907 29.184 44.408 27.168C46.1254 25.152 47.88 23.2293 49.672 21.4C51.5014 19.5707 53.2934 18.0587 55.048 16.864C56.84 15.632 58.4827 14.9227 59.976 14.736C60.1627 14.6987 60.312 14.68 60.424 14.68C60.5734 14.68 60.7227 14.68 60.872 14.68C61.9547 14.68 62.8134 14.9413 63.448 15.464C64.12 15.9493 64.4747 16.7707 64.512 17.928C64.512 18.3387 64.4 18.7867 64.176 19.272C63.952 19.7573 63.5974 20.0747 63.112 20.224C63.2614 20.0373 63.3547 19.7573 63.392 19.384C63.4667 19.0107 63.5227 18.6933 63.56 18.432C63.5227 17.7973 63.224 17.2933 62.664 16.92C62.1414 16.5093 61.3387 16.304 60.256 16.304C58.7627 16.304 57.1387 16.864 55.384 17.984C53.6667 19.104 51.912 20.5413 50.12 22.296C48.3654 24.0507 46.648 25.9173 44.968 27.896C43.3254 29.8747 41.832 31.7227 40.488 33.44C39.0694 35.2693 37.52 37.192 35.84 39.208C34.16 41.1867 32.536 42.9787 30.968 44.584C29.4 46.1893 28.0374 47.384 26.88 48.168C26.656 48.3173 26.32 48.4667 25.872 48.616C25.424 48.7653 24.976 48.84 24.528 48.84C24.1547 48.84 23.8 48.728 23.464 48.504C23.128 48.3173 22.9227 47.9813 22.848 47.496C22.9227 47.5333 23.0534 47.5707 23.24 47.608C23.4267 47.6453 23.632 47.664 23.856 47.664C24.2667 47.664 24.7334 47.5147 25.256 47.216C25.7787 46.9173 26.2267 46.2453 26.6 45.2C27.4214 43.072 28.336 40.8507 29.344 38.536C30.3894 36.184 31.584 33.8693 32.928 31.592C34.272 29.2773 35.8214 27.112 37.576 25.096C39.368 23.0427 41.4027 21.232 43.68 19.664C43.344 19.664 42.9894 19.72 42.616 19.832C42.2427 19.9067 42.056 19.944 42.056 19.944C41.0107 20.3173 39.928 20.8587 38.808 21.568C37.7254 22.24 36.792 22.912 36.008 23.584C35 24.4427 33.824 25.6 32.48 27.056C31.136 28.4747 29.736 30.0427 28.28 31.76C26.824 33.44 25.4054 35.1573 24.024 36.912C22.6427 38.6667 21.1867 40.44 19.656 42.232C18.1627 44.024 16.5947 45.6853 14.952 47.216C13.3094 48.7093 11.6107 49.9227 9.85602 50.856C8.13869 51.7893 6.34669 52.256 4.48002 52.256Z" fill="white"/>
<path d="M56.264 64.928C54.024 64.928 51.784 64.6107 49.544 63.976C47.304 63.3787 45.0827 62.6133 42.88 61.68C40.6774 60.784 38.512 59.9067 36.384 59.048C34.7787 59.8693 33.0427 60.5973 31.176 61.232C29.3094 61.904 27.368 62.2773 25.352 62.352C22.888 62.352 21.0774 61.904 19.92 61.008C18.7627 60.112 18.184 59.048 18.184 57.816C18.184 56.584 18.7627 55.4453 19.92 54.4C21.0774 53.3547 22.6827 52.832 24.736 52.832C26.528 52.832 28.3947 53.2427 30.336 54.064C32.2774 54.8853 34.2934 55.8373 36.384 56.92C37.8027 55.7253 39.2027 54.3813 40.584 52.888C42.0027 51.3573 43.4027 49.7333 44.784 48.016C43.776 47.9413 42.6934 47.7547 41.536 47.456C40.416 47.12 39.352 46.6907 38.344 46.168C37.336 45.608 36.496 44.936 35.824 44.152C35.1894 43.3307 34.872 42.3787 34.872 41.296C34.872 40.064 35.2267 39.0187 35.936 38.16C36.6454 37.264 37.56 36.536 38.68 35.976C39.8374 35.416 41.0694 35.0053 42.376 34.744C43.72 34.4453 45.008 34.296 46.24 34.296C47.696 34.296 49.0774 34.4267 50.384 34.688C51.6907 34.912 52.8854 35.2293 53.968 35.64C55.312 33.9973 56.7307 32.4853 58.224 31.104C59.7174 29.6853 61.2667 28.5467 62.872 27.688C64.5147 26.8293 66.2134 26.4 67.968 26.4C69.424 26.4 70.488 26.792 71.16 27.576C71.8694 28.3227 72.224 29.2933 72.224 30.488C72.224 31.9813 71.7014 33.6613 70.656 35.528C69.648 37.3947 68.136 39.224 66.12 41.016C64.104 42.808 61.6214 44.3387 58.672 45.608C55.76 46.8773 52.4187 47.6613 48.648 47.96C47.1547 49.9013 45.5494 51.7307 43.832 53.448C42.152 55.1653 40.2854 56.6587 38.232 57.928C40.0614 58.8613 41.9094 59.776 43.776 60.672C45.68 61.6053 47.6214 62.352 49.6 62.912C51.616 63.5093 53.6694 63.808 55.76 63.808C56.9547 63.808 58.1494 63.64 59.344 63.304C60.5387 63.0053 61.5467 62.4453 62.368 61.624C63.1894 60.84 63.6 59.7573 63.6 58.376C63.6 57.0693 63.096 56.136 62.088 55.576C61.1174 55.016 59.9227 54.736 58.504 54.736C57.5334 54.736 56.4694 54.904 55.312 55.24C54.192 55.5387 53.2214 55.9867 52.4 56.584C52.2507 56.696 52.12 56.752 52.008 56.752C51.896 56.752 51.84 56.7147 51.84 56.64C51.84 56.2667 52.2507 55.8747 53.072 55.464C53.8934 55.016 54.864 54.6427 55.984 54.344C57.1414 54.008 58.1494 53.84 59.008 53.84C59.8294 53.84 60.7814 53.9893 61.864 54.288C62.9467 54.5493 63.8987 55.016 64.72 55.688C65.5414 56.36 65.952 57.2933 65.952 58.488C65.952 59.9813 65.448 61.1947 64.44 62.128C63.432 63.0987 62.1814 63.808 60.688 64.256C59.232 64.704 57.7574 64.928 56.264 64.928ZM49.432 46.952C52.792 46.5787 55.7787 45.7387 58.392 44.432C61.0427 43.1253 63.3014 41.6133 65.168 39.896C67.0347 38.1413 68.4534 36.3867 69.424 34.632C70.3947 32.8773 70.88 31.3653 70.88 30.096C70.88 29.2373 70.6374 28.5467 70.152 28.024C69.704 27.5013 68.9947 27.24 68.024 27.24C67.0907 27.24 66.12 27.52 65.112 28.08C64.104 28.6027 63.1147 29.2747 62.144 30.096C61.2107 30.9173 60.352 31.7573 59.568 32.616C58.8214 33.4373 58.2427 34.1467 57.832 34.744L56.32 36.872C57.4027 37.6187 58.3174 38.4773 59.064 39.448C59.2134 39.6347 59.288 39.896 59.288 40.232C59.288 40.456 59.2507 40.568 59.176 40.568C59.1387 40.568 59.0827 40.512 59.008 40.4C58.1494 39.3173 57.0854 38.384 55.816 37.6C54.808 39.0933 53.7814 40.6427 52.736 42.248C51.6907 43.816 50.5894 45.384 49.432 46.952ZM45.456 47.12C46.5387 45.8133 47.7334 44.1893 49.04 42.248C50.3467 40.3067 51.784 38.3653 53.352 36.424C51.112 35.5653 48.648 35.136 45.96 35.136C45.1387 35.136 44.2054 35.2853 43.16 35.584C42.152 35.8453 41.1814 36.256 40.248 36.816C39.352 37.3387 38.6054 37.992 38.008 38.776C37.4107 39.56 37.112 40.4747 37.112 41.52C37.112 42.7147 37.56 43.7227 38.456 44.544C39.352 45.3653 40.4534 45.9813 41.76 46.392C43.0667 46.8027 44.2987 47.0453 45.456 47.12ZM25.352 61.456C27.032 61.456 28.6374 61.1573 30.168 60.56C31.6987 60 33.1734 59.2347 34.592 58.264C32.6507 57.48 30.7654 56.8267 28.936 56.304C27.144 55.744 25.4267 55.464 23.784 55.464C22.2534 55.464 21.152 55.688 20.48 56.136C19.808 56.584 19.472 57.1253 19.472 57.76C19.472 58.5813 20.0134 59.4027 21.096 60.224C22.1787 61.0453 23.5974 61.456 25.352 61.456Z" fill="white"/>
</svg>
